
<svg id="vector" xmlns="http://www.w3.org/2000/svg" width="400" height="400" viewBox="0 0 400 400"><g transform="translation(0, 180)" id="g_0"><path fill="#7578f0" d="M2.5 0L2.5 1L2.5 0Z" stroke="#7578f0" stroke-width="1"/><path fill="#7578f0" d="M217.5 0L217.5 1L217.5 0Z" stroke="#7578f0" stroke-width="1"/><path fill="#7578f0" d="M7.5 2L7.5 3L7.5 2Z" stroke="#7578f0" stroke-width="1"/><path fill="#7578f0" d="M212.5 2L212.5 3L212.5 2Z" stroke="#7578f0" stroke-width="1"/><path fill="#7578f0" d="M207.5 4L207.5 5L207.5 4Z" stroke="#7578f0" stroke-width="1"/><path fill="#7578f0" d="M19.5 7L19.5 8L19.5 7Z" stroke="#7578f0" stroke-width="1"/><path fill="#7578f0" d="M219.5 8L220 10.5L219 10.5L219.5 8Z" stroke="#7578f0" stroke-width="1"/><path fill="#7578f0" d="M24.5 9L24.5 10L24.5 9Z" stroke="#7578f0" stroke-width="1"/><path fill="#7578f0" d="M195.5 9L195.5 10L195.5 9Z" stroke="#7578f0" stroke-width="1"/><path fill="#7578f0" d="M29.5 11L29.5 12L29.5 11Z" stroke="#7578f0" stroke-width="1"/><path fill="#7578f0" d="M190.5 11L190.5 12L190.5 11Z" stroke="#7578f0" stroke-width="1"/><path fill="#7578f0" d="M41.5 16L41.5 17L41.5 16Z" stroke="#7578f0" stroke-width="1"/><path fill="#7578f0" d="M178.5 16L178.5 17L178.5 16Z" stroke="#7578f0" stroke-width="1"/><path fill="#7578f0" d="M46.5 18L46.5 19L46.5 18Z" stroke="#7578f0" stroke-width="1"/><path fill="#7578f0" d="M173.5 18L173.5 19L173.5 18Z" stroke="#7578f0" stroke-width="1"/><path fill="#7578f0" d="M51.5 20L51.5 21L51.5 20Z" stroke="#7578f0" stroke-width="1"/><path fill="#7578f0" d="M168.5 20L168.5 21L168.5 20Z" stroke="#7578f0" stroke-width="1"/><path fill="#7578f0" d="M58.5 23L58.5 24L58.5 23Z" stroke="#7578f0" stroke-width="1"/><path fill="#7578f0" d="M63.5 25L63.5 26L63.5 25Z" stroke="#7578f0" stroke-width="1"/><path fill="#7578f0" d="M156.5 25L156.5 26L156.5 25Z" stroke="#7578f0" stroke-width="1"/><path fill="#7578f0" d="M1.5 27L2 28.5L1 28.5L1.5 27Z" stroke="#7578f0" stroke-width="1"/><path fill="#7578f0" d="M68.5 27L68.5 28L68.5 27Z" stroke="#7578f0" stroke-width="1"/><path fill="#7578f0" d="M151.5 27L151.5 28L151.5 27Z" stroke="#7578f0" stroke-width="1"/><path fill="#7578f0" d="M218.5 28L218.5 29L218.5 28Z" stroke="#7578f0" stroke-width="1"/><path fill="#7578f0" d="M73.5 29L73.5 30L73.5 29Z" stroke="#7578f0" stroke-width="1"/><path fill="#7578f0" d="M146.5 29L146.5 30L146.5 29Z" stroke="#7578f0" stroke-width="1"/><path fill="#7578f0" d="M80.5 32L80.5 33L80.5 32Z" stroke="#7578f0" stroke-width="1"/><path fill="#7578f0" d="M139.5 32L139.5 33L139.5 32Z" stroke="#7578f0" stroke-width="1"/><path fill="#7578f0" d="M85.5 34L85.5 35L85.5 34Z" stroke="#7578f0" stroke-width="1"/><path fill="#7578f0" d="M134.5 34L134.5 35L134.5 34Z" stroke="#7578f0" stroke-width="1"/><path fill="#7578f0" d="M2.5 35L2.5 36L2.5 35Z" stroke="#7578f0" stroke-width="1"/><path fill="#7578f0" d="M217.5 35L217.5 36L217.5 35Z" stroke="#7578f0" stroke-width="1"/><path fill="#7578f0" d="M90.5 36L90.5 37L90.5 36Z" stroke="#7578f0" stroke-width="1"/><path fill="#7578f0" d="M129.5 36L129.5 37L129.5 36Z" stroke="#7578f0" stroke-width="1"/><path fill="#7578f0" d="M95.5 38L95.5 39L95.5 38Z" stroke="#7578f0" stroke-width="1"/><path fill="#7578f0" d="M124.5 38L124.5 39L124.5 38Z" stroke="#7578f0" stroke-width="1"/><path fill="#7578f0" d="M3.5 40L3.5 41L3.5 40Z" stroke="#7578f0" stroke-width="1"/><path fill="#7578f0" d="M102.5 41L102.5 42L102.5 41Z" stroke="#7578f0" stroke-width="1"/><path fill="#7578f0" d="M117.5 41L117.5 42L117.5 41Z" stroke="#7578f0" stroke-width="1"/><path fill="#7578f0" d="M5.5 48L5.5 49L5.5 48Z" stroke="#7578f0" stroke-width="1"/><path fill="#7578f0" d="M104.5 50L104.5 51L104.5 50Z" stroke="#7578f0" stroke-width="1"/><path fill="#7578f0" d="M115.5 50L115.5 51L115.5 50Z" stroke="#7578f0" stroke-width="1"/><path fill="#7578f0" d="M6.5 51L6.5 52L6.5 51Z" stroke="#7578f0" stroke-width="1"/><path fill="#7578f0" d="M103.5 52L103.5 53L103.5 52Z" stroke="#7578f0" stroke-width="1"/><path fill="#7578f0" d="M116.5 52L116.5 53L116.5 52Z" stroke="#7578f0" stroke-width="1"/><path fill="#7578f0" d="M7.5 54L7.5 55L7.5 54Z" stroke="#7578f0" stroke-width="1"/><path fill="#7578f0" d="M102.5 54L102.5 55L102.5 54Z" stroke="#7578f0" stroke-width="1"/><path fill="#7578f0" d="M117.5 54L117.5 55L117.5 54Z" stroke="#7578f0" stroke-width="1"/><path fill="#7578f0" d="M12.5 64L12.5 65L12.5 64Z" stroke="#7578f0" stroke-width="1"/><path fill="#7578f0" d="M90.5 68L90.5 69L90.5 68Z" stroke="#7578f0" stroke-width="1"/><path fill="#7578f0" d="M129.5 68L129.5 69L129.5 68Z" stroke="#7578f0" stroke-width="1"/><path fill="#7578f0" d="M201.5 72Q203 73 200.5 74Q199 73 201.5 72Z" stroke="#7578f0" stroke-width="1"/><path fill="#7578f0" d="M80.5 75L80.5 76L80.5 75Z" stroke="#7578f0" stroke-width="1"/><path fill="#7578f0" d="M139.5 75L139.5 76L139.5 75Z" stroke="#7578f0" stroke-width="1"/><path fill="#7578f0" d="M72.5 79L72.5 80L72.5 79Z" stroke="#7578f0" stroke-width="1"/><path fill="#7578f0" d="M147.5 79L147.5 80L147.5 79Z" stroke="#7578f0" stroke-width="1"/><path fill="#7578f0" d="M192.5 79L192.5 80L192.5 79Z" stroke="#7578f0" stroke-width="1"/><path fill="#7578f0" d="M67.5 81L67.5 82L67.5 81Z" stroke="#7578f0" stroke-width="1"/><path fill="#7578f0" d="M152.5 81L152.5 82L152.5 81Z" stroke="#7578f0" stroke-width="1"/><path fill="#7578f0" d="M188.5 81L188.5 82L188.5 81Z" stroke="#7578f0" stroke-width="1"/><path fill="#7578f0" d="M34.5 82L34.5 83L34.5 82Z" stroke="#7578f0" stroke-width="1"/><path fill="#7578f0" d="M43.5 84L45 84.5L43.5 85L43.5 84Z" stroke="#7578f0" stroke-width="1"/><path fill="#7578f0" d="M53.5 84L53.5 85L53.5 84Z" stroke="#7578f0" stroke-width="1"/><path fill="#7578f0" d="M164.5 84L164.5 85L164.5 84Z" stroke="#7578f0" stroke-width="1"/><path fill="#7578f0" d="M177.5 84L177.5 85L177.5 84Z" stroke="#7578f0" stroke-width="1"/><path fill="#7578f0" d="M5.5 1L5.5 2L5.5 1Z" stroke="#7578f0" stroke-width="1"/><path fill="#7578f0" d="M214.5 1L214.5 2L214.5 1Z" stroke="#7578f0" stroke-width="1"/><path fill="#7578f0" d="M10.5 3L10.5 4L10.5 3Z" stroke="#7578f0" stroke-width="1"/><path fill="#7578f0" d="M209.5 3L209.5 4L209.5 3Z" stroke="#7578f0" stroke-width="1"/><path fill="#7578f0" d="M219.5 3L220 7.5L219 7.5L219.5 3Z" stroke="#7578f0" stroke-width="1"/><path fill="#7578f0" d="M0.5 4L1 16.5L0 16.5L0.5 4Z" stroke="#7578f0" stroke-width="1"/><path fill="#7578f0" d="M12.5 4L12.5 5L12.5 4Z" stroke="#7578f0" stroke-width="1"/><path fill="#7578f0" d="M17.5 6L17.5 7L17.5 6Z" stroke="#7578f0" stroke-width="1"/><path fill="#7578f0" d="M202.5 6L202.5 7L202.5 6Z" stroke="#7578f0" stroke-width="1"/><path fill="#7578f0" d="M22.5 8L22.5 9L22.5 8Z" stroke="#7578f0" stroke-width="1"/><path fill="#7578f0" d="M197.5 8L197.5 9L197.5 8Z" stroke="#7578f0" stroke-width="1"/><path fill="#7578f0" d="M27.5 10L27.5 11L27.5 10Z" stroke="#7578f0" stroke-width="1"/><path fill="#7578f0" d="M192.5 10L192.5 11L192.5 10Z" stroke="#7578f0" stroke-width="1"/><path fill="#7578f0" d="M219.5 11L220 16.5L219 16.5L219.5 11Z" stroke="#7578f0" stroke-width="1"/><path fill="#7578f0" d="M32.5 12L32.5 13L32.5 12Z" stroke="#7578f0" stroke-width="1"/><path fill="#7578f0" d="M187.5 12L187.5 13L187.5 12Z" stroke="#7578f0" stroke-width="1"/><path fill="#7578f0" d="M34.5 13L34.5 14L34.5 13Z" stroke="#7578f0" stroke-width="1"/><path fill="#7578f0" d="M185.5 13L185.5 14L185.5 13Z" stroke="#7578f0" stroke-width="1"/><path fill="#7578f0" d="M39.5 15L39.5 16L39.5 15Z" stroke="#7578f0" stroke-width="1"/><path fill="#7578f0" d="M180.5 15L180.5 16L180.5 15Z" stroke="#7578f0" stroke-width="1"/><path fill="#7578f0" d="M44.5 17L44.5 18L44.5 17Z" stroke="#7578f0" stroke-width="1"/><path fill="#7578f0" d="M175.5 17L175.5 18L175.5 17Z" stroke="#7578f0" stroke-width="1"/><path fill="#7578f0" d="M49.5 19L49.5 20L49.5 19Z" stroke="#7578f0" stroke-width="1"/><path fill="#7578f0" d="M170.5 19L170.5 20L170.5 19Z" stroke="#7578f0" stroke-width="1"/><path fill="#7578f0" d="M56.5 22L56.5 23L56.5 22Z" stroke="#7578f0" stroke-width="1"/><path fill="#7578f0" d="M163.5 22L163.5 23L163.5 22Z" stroke="#7578f0" stroke-width="1"/><path fill="#7578f0" d="M61.5 24L61.5 25L61.5 24Z" stroke="#7578f0" stroke-width="1"/><path fill="#7578f0" d="M158.5 24L158.5 25L158.5 24Z" stroke="#7578f0" stroke-width="1"/><path fill="#7578f0" d="M66.5 26L66.5 27L66.5 26Z" stroke="#7578f0" stroke-width="1"/><path fill="#7578f0" d="M153.5 26L153.5 27L153.5 26Z" stroke="#7578f0" stroke-width="1"/><path fill="#7578f0" d="M71.5 28L71.5 29L71.5 28Z" stroke="#7578f0" stroke-width="1"/><path fill="#7578f0" d="M148.5 28L148.5 29L148.5 28Z" stroke="#7578f0" stroke-width="1"/><path fill="#7578f0" d="M1.5 29L1.5 30L1.5 29Z" stroke="#7578f0" stroke-width="1"/><path fill="#7578f0" d="M218.5 29L218.5 30L218.5 29Z" stroke="#7578f0" stroke-width="1"/><path fill="#7578f0" d="M78.5 31L78.5 32L78.5 31Z" stroke="#7578f0" stroke-width="1"/><path fill="#7578f0" d="M141.5 31L141.5 32L141.5 31Z" stroke="#7578f0" stroke-width="1"/><path fill="#7578f0" d="M83.5 33L83.5 34L83.5 33Z" stroke="#7578f0" stroke-width="1"/><path fill="#7578f0" d="M136.5 33L136.5 34L136.5 33Z" stroke="#7578f0" stroke-width="1"/><path fill="#7578f0" d="M88.5 35L88.5 36L88.5 35Z" stroke="#7578f0" stroke-width="1"/><path fill="#7578f0" d="M131.5 35L131.5 36L131.5 35Z" stroke="#7578f0" stroke-width="1"/><path fill="#7578f0" d="M2.5 36L2.5 37L2.5 36Z" stroke="#7578f0" stroke-width="1"/><path fill="#7578f0" d="M217.5 36L217.5 37L217.5 36Z" stroke="#7578f0" stroke-width="1"/><path fill="#7578f0" d="M93.5 37L93.5 38L93.5 37Z" stroke="#7578f0" stroke-width="1"/><path fill="#7578f0" d="M126.5 37L126.5 38L126.5 37Z" stroke="#7578f0" stroke-width="1"/><path fill="#7578f0" d="M100.5 40L100.5 41L100.5 40Z" stroke="#7578f0" stroke-width="1"/><path fill="#7578f0" d="M119.5 40L119.5 41L119.5 40Z" stroke="#7578f0" stroke-width="1"/><path fill="#7578f0" d="M3.5 41L3.5 42L3.5 41Z" stroke="#7578f0" stroke-width="1"/><path fill="#7578f0" d="M216.5 41L216.5 42L216.5 41Z" stroke="#7578f0" stroke-width="1"/><path fill="#7578f0" d="M105.5 42L105.5 43L105.5 42Z" stroke="#7578f0" stroke-width="1"/><path fill="#7578f0" d="M114.5 42L114.5 43L114.5 42Z" stroke="#7578f0" stroke-width="1"/><path fill="#7578f0" d="M4.5 45L4.5 46L4.5 45Z" stroke="#7578f0" stroke-width="1"/><path fill="#7578f0" d="M215.5 45L215.5 46L215.5 45Z" stroke="#7578f0" stroke-width="1"/><path fill="#7578f0" d="M105.5 47L105.5 48L105.5 47Z" stroke="#7578f0" stroke-width="1"/><path fill="#7578f0" d="M114.5 47L114.5 48L114.5 47Z" stroke="#7578f0" stroke-width="1"/><path fill="#7578f0" d="M214.5 49L214.5 50L214.5 49Z" stroke="#7578f0" stroke-width="1"/><path fill="#7578f0" d="M213.5 52L213.5 53L213.5 52Z" stroke="#7578f0" stroke-width="1"/><path fill="#7578f0" d="M101.5 56L101.5 57L101.5 56Z" stroke="#7578f0" stroke-width="1"/><path fill="#7578f0" d="M118.5 56L118.5 57L118.5 56Z" stroke="#7578f0" stroke-width="1"/><path fill="#7578f0" d="M211.5 57L211.5 58L211.5 57Z" stroke="#7578f0" stroke-width="1"/><path fill="#7578f0" d="M9.5 59L9.5 60L9.5 59Z" stroke="#7578f0" stroke-width="1"/><path fill="#7578f0" d="M99.5 59Q101 60 98.5 61Q97 60 99.5 59Z" stroke="#7578f0" stroke-width="1"/><path fill="#7578f0" d="M120.5 59Q123 60 121.5 61Q119 60 120.5 59Z" stroke="#7578f0" stroke-width="1"/><path fill="#7578f0" d="M210.5 59L210.5 60L210.5 59Z" stroke="#7578f0" stroke-width="1"/><path fill="#7578f0" d="M209.5 61L209.5 62L209.5 61Z" stroke="#7578f0" stroke-width="1"/><path fill="#7578f0" d="M206.5 66L206.5 67L206.5 66Z" stroke="#7578f0" stroke-width="1"/><path fill="#7578f0" d="M14.5 67L14.5 68L14.5 67Z" stroke="#7578f0" stroke-width="1"/><path fill="#7578f0" d="M89.5 69L89.5 70L89.5 69Z" stroke="#7578f0" stroke-width="1"/><path fill="#7578f0" d="M130.5 69L130.5 70L130.5 69Z" stroke="#7578f0" stroke-width="1"/><path fill="#7578f0" d="M203.5 70Q205 71 202.5 72Q201 71 203.5 70Z" stroke="#7578f0" stroke-width="1"/><path fill="#7578f0" d="M17.5 71L21 74.5L20.5 75L17 71.5L17.5 71Z" stroke="#7578f0" stroke-width="1"/><path fill="#7578f0" d="M85.5 72L85.5 73L85.5 72Z" stroke="#7578f0" stroke-width="1"/><path fill="#7578f0" d="M134.5 72L134.5 73L134.5 72Z" stroke="#7578f0" stroke-width="1"/><path fill="#7578f0" d="M82.5 74L82.5 75L82.5 74Z" stroke="#7578f0" stroke-width="1"/><path fill="#7578f0" d="M137.5 74L137.5 75L137.5 74Z" stroke="#7578f0" stroke-width="1"/><path fill="#7578f0" d="M199.5 74Q201 75 198.5 76Q197 75 199.5 74Z" stroke="#7578f0" stroke-width="1"/><path fill="#7578f0" d="M24.5 77L24.5 78L24.5 77Z" stroke="#7578f0" stroke-width="1"/><path fill="#7578f0" d="M194.5 78L194.5 79L194.5 78Z" stroke="#7578f0" stroke-width="1"/><path fill="#7578f0" d="M27.5 79L27.5 80L27.5 79Z" stroke="#7578f0" stroke-width="1"/><path fill="#7578f0" d="M29.5 80L29.5 81L29.5 80Z" stroke="#7578f0" stroke-width="1"/><path fill="#7578f0" d="M70.5 80L70.5 81L70.5 80Z" stroke="#7578f0" stroke-width="1"/><path fill="#7578f0" d="M149.5 80L149.5 81L149.5 80Z" stroke="#7578f0" stroke-width="1"/><path fill="#7578f0" d="M31.5 81L31.5 82L31.5 81Z" stroke="#7578f0" stroke-width="1"/><path fill="#7578f0" d="M64.5 82L64.5 83L64.5 82Z" stroke="#7578f0" stroke-width="1"/><path fill="#7578f0" d="M155.5 82L155.5 83L155.5 82Z" stroke="#7578f0" stroke-width="1"/><path fill="#7578f0" d="M186.5 82L186.5 83L186.5 82Z" stroke="#7578f0" stroke-width="1"/><path fill="#7578f0" d="M37.5 83L37.5 84L37.5 83Z" stroke="#7578f0" stroke-width="1"/><path fill="#7578f0" d="M60.5 83L60.5 84L60.5 83Z" stroke="#7578f0" stroke-width="1"/><path fill="#7578f0" d="M159.5 83L159.5 84L159.5 83Z" stroke="#7578f0" stroke-width="1"/><path fill="#7578f0" d="M42.5 84L42.5 85L42.5 84Z" stroke="#7578f0" stroke-width="1"/><path fill="#7578f0" d="M54.5 84L56 84.5L54.5 85L54.5 84Z" stroke="#7578f0" stroke-width="1"/><path fill="#7578f0" d="M178.5 84L178.5 85L178.5 84Z" stroke="#7578f0" stroke-width="1"/><path fill="#7578f0" d="M216.5 1L216.5 2L216.5 1Z" stroke="#7578f0" stroke-width="1"/><path fill="#7578f0" d="M5.5 2L5.5 3L5.5 2Z" stroke="#7578f0" stroke-width="1"/><path fill="#7578f0" d="M211.5 3L211.5 4L211.5 3Z" stroke="#7578f0" stroke-width="1"/><path fill="#7578f0" d="M10.5 4L10.5 5L10.5 4Z" stroke="#7578f0" stroke-width="1"/><path fill="#7578f0" d="M206.5 5L206.5 6L206.5 5Z" stroke="#7578f0" stroke-width="1"/><path fill="#7578f0" d="M15.5 6L15.5 7L15.5 6Z" stroke="#7578f0" stroke-width="1"/><path fill="#7578f0" d="M201.5 7L201.5 8L201.5 7Z" stroke="#7578f0" stroke-width="1"/><path fill="#7578f0" d="M20.5 8L20.5 9L20.5 8Z" stroke="#7578f0" stroke-width="1"/><path fill="#7578f0" d="M199.5 8L199.5 9L199.5 8Z" stroke="#7578f0" stroke-width="1"/><path fill="#7578f0" d="M194.5 10L194.5 11L194.5 10Z" stroke="#7578f0" stroke-width="1"/><path fill="#7578f0" d="M27.5 11L27.5 12L27.5 11Z" stroke="#7578f0" stroke-width="1"/><path fill="#7578f0" d="M189.5 12L189.5 13L189.5 12Z" stroke="#7578f0" stroke-width="1"/><path fill="#7578f0" d="M32.5 13L32.5 14L32.5 13Z" stroke="#7578f0" stroke-width="1"/><path fill="#7578f0" d="M184.5 14L184.5 15L184.5 14Z" stroke="#7578f0" stroke-width="1"/><path fill="#7578f0" d="M37.5 15L37.5 16L37.5 15Z" stroke="#7578f0" stroke-width="1"/><path fill="#7578f0" d="M42.5 17L42.5 18L42.5 17Z" stroke="#7578f0" stroke-width="1"/><path fill="#7578f0" d="M177.5 17L177.5 18L177.5 17Z" stroke="#7578f0" stroke-width="1"/><path fill="#7578f0" d="M172.5 19L172.5 20L172.5 19Z" stroke="#7578f0" stroke-width="1"/><path fill="#7578f0" d="M1.5 20L1.5 21L1.5 20Z" stroke="#7578f0" stroke-width="1"/><path fill="#7578f0" d="M49.5 20L49.5 21L49.5 20Z" stroke="#7578f0" stroke-width="1"/><path fill="#7578f0" d="M218.5 20L219 21.5L218 21.5L218.5 20Z" stroke="#7578f0" stroke-width="1"/><path fill="#7578f0" d="M167.5 21L167.5 22L167.5 21Z" stroke="#7578f0" stroke-width="1"/><path fill="#7578f0" d="M54.5 22L54.5 23L54.5 22Z" stroke="#7578f0" stroke-width="1"/><path fill="#7578f0" d="M162.5 23L162.5 24L162.5 23Z" stroke="#7578f0" stroke-width="1"/><path fill="#7578f0" d="M59.5 24L59.5 25L59.5 24Z" stroke="#7578f0" stroke-width="1"/><path fill="#7578f0" d="M160.5 24L160.5 25L160.5 24Z" stroke="#7578f0" stroke-width="1"/><path fill="#7578f0" d="M155.5 26L155.5 27L155.5 26Z" stroke="#7578f0" stroke-width="1"/><path fill="#7578f0" d="M150.5 28L150.5 29L150.5 28Z" stroke="#7578f0" stroke-width="1"/><path fill="#7578f0" d="M71.5 29L71.5 30L71.5 29Z" stroke="#7578f0" stroke-width="1"/><path fill="#7578f0" d="M145.5 30L145.5 31L145.5 30Z" stroke="#7578f0" stroke-width="1"/><path fill="#7578f0" d="M2.5 31L2.5 32L2.5 31Z" stroke="#7578f0" stroke-width="1"/><path fill="#7578f0" d="M76.5 31L76.5 32L76.5 31Z" stroke="#7578f0" stroke-width="1"/><path fill="#7578f0" d="M217.5 31L217.5 32L217.5 31Z" stroke="#7578f0" stroke-width="1"/><path fill="#7578f0" d="M81.5 33L81.5 34L81.5 33Z" stroke="#7578f0" stroke-width="1"/><path fill="#7578f0" d="M138.5 33L138.5 34L138.5 33Z" stroke="#7578f0" stroke-width="1"/><path fill="#7578f0" d="M133.5 35L133.5 36L133.5 35Z" stroke="#7578f0" stroke-width="1"/><path fill="#7578f0" d="M3.5 37L3.5 38L3.5 37Z" stroke="#7578f0" stroke-width="1"/><path fill="#7578f0" d="M128.5 37L128.5 38L128.5 37Z" stroke="#7578f0" stroke-width="1"/><path fill="#7578f0" d="M93.5 38L93.5 39L93.5 38Z" stroke="#7578f0" stroke-width="1"/><path fill="#7578f0" d="M216.5 38L216.5 39L216.5 38Z" stroke="#7578f0" stroke-width="1"/><path fill="#7578f0" d="M98.5 40L98.5 41L98.5 40Z" stroke="#7578f0" stroke-width="1"/><path fill="#7578f0" d="M121.5 40L121.5 41L121.5 40Z" stroke="#7578f0" stroke-width="1"/><path fill="#7578f0" d="M4.5 42L4.5 43L4.5 42Z" stroke="#7578f0" stroke-width="1"/><path fill="#7578f0" d="M103.5 42L103.5 43L103.5 42Z" stroke="#7578f0" stroke-width="1"/><path fill="#7578f0" d="M116.5 42L116.5 43L116.5 42Z" stroke="#7578f0" stroke-width="1"/><path fill="#7578f0" d="M105.5 43L105.5 44L105.5 43Z" stroke="#7578f0" stroke-width="1"/><path fill="#7578f0" d="M114.5 43L114.5 44L114.5 43Z" stroke="#7578f0" stroke-width="1"/><path fill="#7578f0" d="M5.5 46L5.5 47L5.5 46Z" stroke="#7578f0" stroke-width="1"/><path fill="#7578f0" d="M214.5 46L214.5 47L214.5 46Z" stroke="#7578f0" stroke-width="1"/><path fill="#7578f0" d="M104.5 48L104.5 49L104.5 48Z" stroke="#7578f0" stroke-width="1"/><path fill="#7578f0" d="M6.5 49L6.5 50L6.5 49Z" stroke="#7578f0" stroke-width="1"/><path fill="#7578f0" d="M7.5 52L7.5 53L7.5 52Z" stroke="#7578f0" stroke-width="1"/><path fill="#7578f0" d="M211.5 55L211.5 56L211.5 55Z" stroke="#7578f0" stroke-width="1"/><path fill="#7578f0" d="M100.5 56L100.5 57L100.5 56Z" stroke="#7578f0" stroke-width="1"/><path fill="#7578f0" d="M119.5 56L119.5 57L119.5 56Z" stroke="#7578f0" stroke-width="1"/><path fill="#7578f0" d="M9.5 57L9.5 58L9.5 57Z" stroke="#7578f0" stroke-width="1"/><path fill="#7578f0" d="M10.5 59L10.5 60L10.5 59Z" stroke="#7578f0" stroke-width="1"/><path fill="#7578f0" d="M97.5 60L97.5 61L97.5 60Z" stroke="#7578f0" stroke-width="1"/><path fill="#7578f0" d="M122.5 60L122.5 61L122.5 60Z" stroke="#7578f0" stroke-width="1"/><path fill="#7578f0" d="M11.5 61L11.5 62L11.5 61Z" stroke="#7578f0" stroke-width="1"/><path fill="#7578f0" d="M207.5 63L207.5 64L207.5 63Z" stroke="#7578f0" stroke-width="1"/><path fill="#7578f0" d="M205.5 66L205.5 67L205.5 66Z" stroke="#7578f0" stroke-width="1"/><path fill="#7578f0" d="M15.5 67L15.5 68L15.5 67Z" stroke="#7578f0" stroke-width="1"/><path fill="#7578f0" d="M89.5 68L89.5 69L89.5 68Z" stroke="#7578f0" stroke-width="1"/><path fill="#7578f0" d="M130.5 68L130.5 69L130.5 68Z" stroke="#7578f0" stroke-width="1"/><path fill="#7578f0" d="M202.5 70L203 70.5L198.5 75L198 74.5L202.5 70Z" stroke="#7578f0" stroke-width="1"/><path fill="#7578f0" d="M85.5 71L85.5 72L85.5 71Z" stroke="#7578f0" stroke-width="1"/><path fill="#7578f0" d="M134.5 71L134.5 72L134.5 71Z" stroke="#7578f0" stroke-width="1"/><path fill="#7578f0" d="M82.5 73L82.5 74L82.5 73Z" stroke="#7578f0" stroke-width="1"/><path fill="#7578f0" d="M137.5 73L137.5 74L137.5 73Z" stroke="#7578f0" stroke-width="1"/><path fill="#7578f0" d="M24.5 76L24.5 77L24.5 76Z" stroke="#7578f0" stroke-width="1"/><path fill="#7578f0" d="M77.5 76L77.5 77L77.5 76Z" stroke="#7578f0" stroke-width="1"/><path fill="#7578f0" d="M142.5 76L142.5 77L142.5 76Z" stroke="#7578f0" stroke-width="1"/><path fill="#7578f0" d="M75.5 77L75.5 78L75.5 77Z" stroke="#7578f0" stroke-width="1"/><path fill="#7578f0" d="M144.5 77L144.5 78L144.5 77Z" stroke="#7578f0" stroke-width="1"/><path fill="#7578f0" d="M194.5 77L194.5 78L194.5 77Z" stroke="#7578f0" stroke-width="1"/><path fill="#7578f0" d="M27.5 78L27.5 79L27.5 78Z" stroke="#7578f0" stroke-width="1"/><path fill="#7578f0" d="M191.5 79L191.5 80L191.5 79Z" stroke="#7578f0" stroke-width="1"/><path fill="#7578f0" d="M189.5 80L189.5 81L189.5 80Z" stroke="#7578f0" stroke-width="1"/><path fill="#7578f0" d="M33.5 81L33.5 82L33.5 81Z" stroke="#7578f0" stroke-width="1"/><path fill="#7578f0" d="M154.5 81L154.5 82L154.5 81Z" stroke="#7578f0" stroke-width="1"/><path fill="#7578f0" d="M36.5 82L36.5 83L36.5 82Z" stroke="#7578f0" stroke-width="1"/><path fill="#7578f0" d="M61.5 82L61.5 83L61.5 82Z" stroke="#7578f0" stroke-width="1"/><path fill="#7578f0" d="M158.5 82L158.5 83L158.5 82Z" stroke="#7578f0" stroke-width="1"/><path fill="#7578f0" d="M56.5 83L56.5 84L56.5 83Z" stroke="#7578f0" stroke-width="1"/><path fill="#7578f0" d="M162.5 83L162.5 84L162.5 83Z" stroke="#7578f0" stroke-width="1"/><path fill="#7578f0" d="M179.5 83L179.5 84L179.5 83Z" stroke="#7578f0" stroke-width="1"/><path fill="#7578f0" d="M1 1L105 43L105 47.5L102 54.5Q97.29 62.29 90.5 68L80.5 75L64.5 82L56.5 83L55.5 84L41.5 84L29.5 80Q21.5 75.5 16 68.5L8 54.5L5 45.5L5 42.5L4 41.5L3 31.5L2 30.5L2 20.5L1 19.5L1 1Z" stroke="#7578f0" stroke-width="1"/><path fill="#7578f0" d="M217.5 1L219 1.5L219 19.5L218 20.5L218 30.5L217 31.5L216 42.5L211 57.5Q205.44 69.44 195.5 77L183.5 83Q179.5 82 178.5 84L163.5 84L162.5 83L159.5 83L158.5 82L155.5 82L149.5 80L139.5 75L129.5 68L123 61.5L115 48.5L115 43L217.5 1Z" stroke="#7578f0" stroke-width="1"/><path fill="#7578f0" d="M4.5 1L4.5 2L4.5 1Z" stroke="#7578f0" stroke-width="1"/><path fill="#7578f0" d="M9.5 3L9.5 4L9.5 3Z" stroke="#7578f0" stroke-width="1"/><path fill="#7578f0" d="M14.5 5L14.5 6L14.5 5Z" stroke="#7578f0" stroke-width="1"/><path fill="#7578f0" d="M205.5 5L205.5 6L205.5 5Z" stroke="#7578f0" stroke-width="1"/><path fill="#7578f0" d="M200.5 7L200.5 8L200.5 7Z" stroke="#7578f0" stroke-width="1"/><path fill="#7578f0" d="M21.5 8L21.5 9L21.5 8Z" stroke="#7578f0" stroke-width="1"/><path fill="#7578f0" d="M26.5 10L26.5 11L26.5 10Z" stroke="#7578f0" stroke-width="1"/><path fill="#7578f0" d="M31.5 12L31.5 13L31.5 12Z" stroke="#7578f0" stroke-width="1"/><path fill="#7578f0" d="M188.5 12L188.5 13L188.5 12Z" stroke="#7578f0" stroke-width="1"/><path fill="#7578f0" d="M36.5 14L36.5 15L36.5 14Z" stroke="#7578f0" stroke-width="1"/><path fill="#7578f0" d="M183.5 14L183.5 15L183.5 14Z" stroke="#7578f0" stroke-width="1"/><path fill="#7578f0" d="M43.5 17L43.5 18L43.5 17Z" stroke="#7578f0" stroke-width="1"/><path fill="#7578f0" d="M48.5 19L48.5 20L48.5 19Z" stroke="#7578f0" stroke-width="1"/><path fill="#7578f0" d="M171.5 19L171.5 20L171.5 19Z" stroke="#7578f0" stroke-width="1"/><path fill="#7578f0" d="M53.5 21L53.5 22L53.5 21Z" stroke="#7578f0" stroke-width="1"/><path fill="#7578f0" d="M166.5 21L166.5 22L166.5 21Z" stroke="#7578f0" stroke-width="1"/><path fill="#7578f0" d="M161.5 23L161.5 24L161.5 23Z" stroke="#7578f0" stroke-width="1"/><path fill="#7578f0" d="M1.5 25L2 26.5L1 26.5L1.5 25Z" stroke="#7578f0" stroke-width="1"/><path fill="#7578f0" d="M65.5 26L65.5 27L65.5 26Z" stroke="#7578f0" stroke-width="1"/><path fill="#7578f0" d="M218.5 26L218.5 27L218.5 26Z" stroke="#7578f0" stroke-width="1"/><path fill="#7578f0" d="M70.5 28L70.5 29L70.5 28Z" stroke="#7578f0" stroke-width="1"/><path fill="#7578f0" d="M149.5 28L149.5 29L149.5 28Z" stroke="#7578f0" stroke-width="1"/><path fill="#7578f0" d="M75.5 30L75.5 31L75.5 30Z" stroke="#7578f0" stroke-width="1"/><path fill="#7578f0" d="M144.5 30L144.5 31L144.5 30Z" stroke="#7578f0" stroke-width="1"/><path fill="#7578f0" d="M2.5 34L2.5 35L2.5 34Z" stroke="#7578f0" stroke-width="1"/><path fill="#7578f0" d="M217.5 34L217.5 35L217.5 34Z" stroke="#7578f0" stroke-width="1"/><path fill="#7578f0" d="M87.5 35L87.5 36L87.5 35Z" stroke="#7578f0" stroke-width="1"/><path fill="#7578f0" d="M132.5 35L132.5 36L132.5 35Z" stroke="#7578f0" stroke-width="1"/><path fill="#7578f0" d="M92.5 37L92.5 38L92.5 37Z" stroke="#7578f0" stroke-width="1"/><path fill="#7578f0" d="M127.5 37L127.5 38L127.5 37Z" stroke="#7578f0" stroke-width="1"/><path fill="#7578f0" d="M97.5 39L97.5 40L97.5 39Z" stroke="#7578f0" stroke-width="1"/><path fill="#7578f0" d="M122.5 39L122.5 40L122.5 39Z" stroke="#7578f0" stroke-width="1"/><path fill="#7578f0" d="M216.5 40L216.5 41L216.5 40Z" stroke="#7578f0" stroke-width="1"/><path fill="#7578f0" d="M104.5 42L104.5 43L104.5 42Z" stroke="#7578f0" stroke-width="1"/><path fill="#7578f0" d="M4.5 44L4.5 45L4.5 44Z" stroke="#7578f0" stroke-width="1"/><path fill="#7578f0" d="M105.5 46L105.5 47L105.5 46Z" stroke="#7578f0" stroke-width="1"/><path fill="#7578f0" d="M114.5 46L114.5 47L114.5 46Z" stroke="#7578f0" stroke-width="1"/><path fill="#7578f0" d="M214.5 48L214.5 49L214.5 48Z" stroke="#7578f0" stroke-width="1"/><path fill="#7578f0" d="M213.5 51L213.5 52L213.5 51Z" stroke="#7578f0" stroke-width="1"/><path fill="#7578f0" d="M212.5 54L212.5 55L212.5 54Z" stroke="#7578f0" stroke-width="1"/><path fill="#7578f0" d="M8.5 56L8.5 57L8.5 56Z" stroke="#7578f0" stroke-width="1"/><path fill="#7578f0" d="M100.5 57L100.5 58L100.5 57Z" stroke="#7578f0" stroke-width="1"/><path fill="#7578f0" d="M119.5 57L119.5 58L119.5 57Z" stroke="#7578f0" stroke-width="1"/><path fill="#7578f0" d="M9.5 58L9.5 59L9.5 58Z" stroke="#7578f0" stroke-width="1"/><path fill="#7578f0" d="M10.5 60L10.5 61L10.5 60Z" stroke="#7578f0" stroke-width="1"/><path fill="#7578f0" d="M97.5 61Q99 62 96.5 63Q95 62 97.5 61Z" stroke="#7578f0" stroke-width="1"/><path fill="#7578f0" d="M122.5 61Q125 62 123.5 63Q121 62 122.5 61Z" stroke="#7578f0" stroke-width="1"/><path fill="#7578f0" d="M11.5 62L11.5 63L11.5 62Z" stroke="#7578f0" stroke-width="1"/><path fill="#7578f0" d="M207.5 64L207.5 65L207.5 64Z" stroke="#7578f0" stroke-width="1"/><path fill="#7578f0" d="M92.5 66Q94 67 91.5 68Q90 67 92.5 66Z" stroke="#7578f0" stroke-width="1"/><path fill="#7578f0" d="M127.5 66Q130 67 128.5 68Q126 67 127.5 66Z" stroke="#7578f0" stroke-width="1"/><path fill="#7578f0" d="M205.5 67L205.5 68L205.5 67Z" stroke="#7578f0" stroke-width="1"/><path fill="#7578f0" d="M15.5 68L15.5 69L15.5 68Z" stroke="#7578f0" stroke-width="1"/><path fill="#7578f0" d="M86.5 71L86.5 72L86.5 71Z" stroke="#7578f0" stroke-width="1"/><path fill="#7578f0" d="M133.5 71L133.5 72L133.5 71Z" stroke="#7578f0" stroke-width="1"/><path fill="#7578f0" d="M83.5 73L83.5 74L83.5 73Z" stroke="#7578f0" stroke-width="1"/><path fill="#7578f0" d="M136.5 73L136.5 74L136.5 73Z" stroke="#7578f0" stroke-width="1"/><path fill="#7578f0" d="M23.5 76L23.5 77L23.5 76Z" stroke="#7578f0" stroke-width="1"/><path fill="#7578f0" d="M78.5 76L78.5 77L78.5 76Z" stroke="#7578f0" stroke-width="1"/><path fill="#7578f0" d="M141.5 76L141.5 77L141.5 76Z" stroke="#7578f0" stroke-width="1"/><path fill="#7578f0" d="M76.5 77L76.5 78L76.5 77Z" stroke="#7578f0" stroke-width="1"/><path fill="#7578f0" d="M143.5 77L143.5 78L143.5 77Z" stroke="#7578f0" stroke-width="1"/><path fill="#7578f0" d="M195.5 77L195.5 78L195.5 77Z" stroke="#7578f0" stroke-width="1"/><path fill="#7578f0" d="M74.5 78L74.5 79L74.5 78Z" stroke="#7578f0" stroke-width="1"/><path fill="#7578f0" d="M145.5 78L145.5 79L145.5 78Z" stroke="#7578f0" stroke-width="1"/><path fill="#7578f0" d="M69.5 80L69.5 81L69.5 80Z" stroke="#7578f0" stroke-width="1"/><path fill="#7578f0" d="M150.5 80L150.5 81L150.5 80Z" stroke="#7578f0" stroke-width="1"/><path fill="#7578f0" d="M190.5 80L190.5 81L190.5 80Z" stroke="#7578f0" stroke-width="1"/><path fill="#7578f0" d="M63.5 82L63.5 83L63.5 82Z" stroke="#7578f0" stroke-width="1"/><path fill="#7578f0" d="M156.5 82L156.5 83L156.5 82Z" stroke="#7578f0" stroke-width="1"/><path fill="#7578f0" d="M185.5 82L185.5 83L185.5 82Z" stroke="#7578f0" stroke-width="1"/><path fill="#7578f0" d="M38.5 83L38.5 84L38.5 83Z" stroke="#7578f0" stroke-width="1"/><path fill="#7578f0" d="M59.5 83L59.5 84L59.5 83Z" stroke="#7578f0" stroke-width="1"/><path fill="#7578f0" d="M182.5 83L182.5 84L182.5 83Z" stroke="#7578f0" stroke-width="1"/><path fill="#7578f0" d="M45.5 84L53 84.5L45.5 85L45.5 84Z" stroke="#7578f0" stroke-width="1"/><path fill="#7578f0" d="M165.5 84L165.5 85L165.5 84Z" stroke="#7578f0" stroke-width="1"/><path fill="#7578f0" d="M176.5 84L176.5 85L176.5 84Z" stroke="#7578f0" stroke-width="1"/><path fill="#7578f0" d="M1.5 0L1.5 1L1.5 0Z" stroke="#7578f0" stroke-width="1"/><path fill="#7578f0" d="M215.5 1L215.5 2L215.5 1Z" stroke="#7578f0" stroke-width="1"/><path fill="#7578f0" d="M6.5 2L6.5 3L6.5 2Z" stroke="#7578f0" stroke-width="1"/><path fill="#7578f0" d="M210.5 3L210.5 4L210.5 3Z" stroke="#7578f0" stroke-width="1"/><path fill="#7578f0" d="M11.5 4L11.5 5L11.5 4Z" stroke="#7578f0" stroke-width="1"/><path fill="#7578f0" d="M16.5 6L16.5 7L16.5 6Z" stroke="#7578f0" stroke-width="1"/><path fill="#7578f0" d="M198.5 8L198.5 9L198.5 8Z" stroke="#7578f0" stroke-width="1"/><path fill="#7578f0" d="M23.5 9L23.5 10L23.5 9Z" stroke="#7578f0" stroke-width="1"/><path fill="#7578f0" d="M193.5 10L193.5 11L193.5 10Z" stroke="#7578f0" stroke-width="1"/><path fill="#7578f0" d="M28.5 11L28.5 12L28.5 11Z" stroke="#7578f0" stroke-width="1"/><path fill="#7578f0" d="M33.5 13L33.5 14L33.5 13Z" stroke="#7578f0" stroke-width="1"/><path fill="#7578f0" d="M38.5 15L38.5 16L38.5 15Z" stroke="#7578f0" stroke-width="1"/><path fill="#7578f0" d="M181.5 15L181.5 16L181.5 15Z" stroke="#7578f0" stroke-width="1"/><path fill="#7578f0" d="M176.5 17L176.5 18L176.5 17Z" stroke="#7578f0" stroke-width="1"/><path fill="#7578f0" d="M45.5 18L45.5 19L45.5 18Z" stroke="#7578f0" stroke-width="1"/><path fill="#7578f0" d="M50.5 20L50.5 21L50.5 20Z" stroke="#7578f0" stroke-width="1"/><path fill="#7578f0" d="M55.5 22L55.5 23L55.5 22Z" stroke="#7578f0" stroke-width="1"/><path fill="#7578f0" d="M164.5 22L164.5 23L164.5 22Z" stroke="#7578f0" stroke-width="1"/><path fill="#7578f0" d="M1.5 23L2 24.5L1 24.5L1.5 23Z" stroke="#7578f0" stroke-width="1"/><path fill="#7578f0" d="M60.5 24L60.5 25L60.5 24Z" stroke="#7578f0" stroke-width="1"/><path fill="#7578f0" d="M159.5 24L159.5 25L159.5 24Z" stroke="#7578f0" stroke-width="1"/><path fill="#7578f0" d="M218.5 24L219 25.5L218 25.5L218.5 24Z" stroke="#7578f0" stroke-width="1"/><path fill="#7578f0" d="M154.5 26L154.5 27L154.5 26Z" stroke="#7578f0" stroke-width="1"/><path fill="#7578f0" d="M67.5 27L67.5 28L67.5 27Z" stroke="#7578f0" stroke-width="1"/><path fill="#7578f0" d="M218.5 27L218.5 28L218.5 27Z" stroke="#7578f0" stroke-width="1"/><path fill="#7578f0" d="M72.5 29L72.5 30L72.5 29Z" stroke="#7578f0" stroke-width="1"/><path fill="#7578f0" d="M147.5 29L147.5 30L147.5 29Z" stroke="#7578f0" stroke-width="1"/><path fill="#7578f0" d="M77.5 31L77.5 32L77.5 31Z" stroke="#7578f0" stroke-width="1"/><path fill="#7578f0" d="M142.5 31L142.5 32L142.5 31Z" stroke="#7578f0" stroke-width="1"/><path fill="#7578f0" d="M2.5 33L2.5 34L2.5 33Z" stroke="#7578f0" stroke-width="1"/><path fill="#7578f0" d="M82.5 33L82.5 34L82.5 33Z" stroke="#7578f0" stroke-width="1"/><path fill="#7578f0" d="M137.5 33L137.5 34L137.5 33Z" stroke="#7578f0" stroke-width="1"/><path fill="#7578f0" d="M217.5 33L217.5 34L217.5 33Z" stroke="#7578f0" stroke-width="1"/><path fill="#7578f0" d="M89.5 36L89.5 37L89.5 36Z" stroke="#7578f0" stroke-width="1"/><path fill="#7578f0" d="M94.5 38L94.5 39L94.5 38Z" stroke="#7578f0" stroke-width="1"/><path fill="#7578f0" d="M125.5 38L125.5 39L125.5 38Z" stroke="#7578f0" stroke-width="1"/><path fill="#7578f0" d="M3.5 39L3.5 40L3.5 39Z" stroke="#7578f0" stroke-width="1"/><path fill="#7578f0" d="M216.5 39L216.5 40L216.5 39Z" stroke="#7578f0" stroke-width="1"/><path fill="#7578f0" d="M99.5 40L99.5 41L99.5 40Z" stroke="#7578f0" stroke-width="1"/><path fill="#7578f0" d="M120.5 40L120.5 41L120.5 40Z" stroke="#7578f0" stroke-width="1"/><path fill="#7578f0" d="M115.5 42L115.5 43L115.5 42Z" stroke="#7578f0" stroke-width="1"/><path fill="#7578f0" d="M4.5 43L4.5 44L4.5 43Z" stroke="#7578f0" stroke-width="1"/><path fill="#7578f0" d="M215.5 44L215.5 45L215.5 44Z" stroke="#7578f0" stroke-width="1"/><path fill="#7578f0" d="M105.5 45L105.5 46L105.5 45Z" stroke="#7578f0" stroke-width="1"/><path fill="#7578f0" d="M114.5 45L114.5 46L114.5 45Z" stroke="#7578f0" stroke-width="1"/><path fill="#7578f0" d="M5.5 47L5.5 48L5.5 47Z" stroke="#7578f0" stroke-width="1"/><path fill="#7578f0" d="M104.5 49L104.5 50L104.5 49Z" stroke="#7578f0" stroke-width="1"/><path fill="#7578f0" d="M115.5 49L115.5 50L115.5 49Z" stroke="#7578f0" stroke-width="1"/><path fill="#7578f0" d="M6.5 50L6.5 51L6.5 50Z" stroke="#7578f0" stroke-width="1"/><path fill="#7578f0" d="M7.5 53L7.5 54L7.5 53Z" stroke="#7578f0" stroke-width="1"/><path fill="#7578f0" d="M118.5 55L118.5 56L118.5 55Z" stroke="#7578f0" stroke-width="1"/><path fill="#7578f0" d="M211.5 56L211.5 57L211.5 56Z" stroke="#7578f0" stroke-width="1"/><path fill="#7578f0" d="M99.5 58L99.5 59L99.5 58Z" stroke="#7578f0" stroke-width="1"/><path fill="#7578f0" d="M120.5 58L120.5 59L120.5 58Z" stroke="#7578f0" stroke-width="1"/><path fill="#7578f0" d="M208.5 62L208.5 63L208.5 62Z" stroke="#7578f0" stroke-width="1"/><path fill="#7578f0" d="M95.5 63L96 63.5L93.5 66L93 65.5L95.5 63Z" stroke="#7578f0" stroke-width="1"/><path fill="#7578f0" d="M124.5 63L127 65.5L126.5 66L124 63.5L124.5 63Z" stroke="#7578f0" stroke-width="1"/><path fill="#7578f0" d="M13.5 65L13.5 66L13.5 65Z" stroke="#7578f0" stroke-width="1"/><path fill="#7578f0" d="M204.5 68L204.5 69L204.5 68Z" stroke="#7578f0" stroke-width="1"/><path fill="#7578f0" d="M16.5 69L16.5 70L16.5 69Z" stroke="#7578f0" stroke-width="1"/><path fill="#7578f0" d="M87.5 70L87.5 71L87.5 70Z" stroke="#7578f0" stroke-width="1"/><path fill="#7578f0" d="M132.5 70L132.5 71L132.5 70Z" stroke="#7578f0" stroke-width="1"/><path fill="#7578f0" d="M81.5 74L81.5 75L81.5 74Z" stroke="#7578f0" stroke-width="1"/><path fill="#7578f0" d="M138.5 74L138.5 75L138.5 74Z" stroke="#7578f0" stroke-width="1"/><path fill="#7578f0" d="M22.5 75L22.5 76L22.5 75Z" stroke="#7578f0" stroke-width="1"/><path fill="#7578f0" d="M196.5 76L196.5 77L196.5 76Z" stroke="#7578f0" stroke-width="1"/><path fill="#7578f0" d="M26.5 78L26.5 79L26.5 78Z" stroke="#7578f0" stroke-width="1"/><path fill="#7578f0" d="M28.5 79L28.5 80L28.5 79Z" stroke="#7578f0" stroke-width="1"/><path fill="#7578f0" d="M30.5 80L30.5 81L30.5 80Z" stroke="#7578f0" stroke-width="1"/><path fill="#7578f0" d="M32.5 81L32.5 82L32.5 81Z" stroke="#7578f0" stroke-width="1"/><path fill="#7578f0" d="M66.5 81L66.5 82L66.5 81Z" stroke="#7578f0" stroke-width="1"/><path fill="#7578f0" d="M153.5 81L153.5 82L153.5 81Z" stroke="#7578f0" stroke-width="1"/><path fill="#7578f0" d="M35.5 82L35.5 83L35.5 82Z" stroke="#7578f0" stroke-width="1"/><path fill="#7578f0" d="M62.5 82L62.5 83L62.5 82Z" stroke="#7578f0" stroke-width="1"/><path fill="#7578f0" d="M39.5 83L39.5 84L39.5 83Z" stroke="#7578f0" stroke-width="1"/><path fill="#7578f0" d="M58.5 83L58.5 84L58.5 83Z" stroke="#7578f0" stroke-width="1"/><path fill="#7578f0" d="M160.5 83L160.5 84L160.5 83Z" stroke="#7578f0" stroke-width="1"/><path fill="#7578f0" d="M181.5 83L181.5 84L181.5 83Z" stroke="#7578f0" stroke-width="1"/><path fill="#7578f0" d="M166.5 84L169 84.5L166.5 85L166.5 84Z" stroke="#7578f0" stroke-width="1"/><path fill="#7578f0" d="M173.5 84L176 84.5L173.5 85L173.5 84Z" stroke="#7578f0" stroke-width="1"/><path fill="#7578f0" d="M218.5 0L218.5 1L218.5 0Z" stroke="#7578f0" stroke-width="1"/><path fill="#7578f0" d="M3.5 1L3.5 2L3.5 1Z" stroke="#7578f0" stroke-width="1"/><path fill="#7578f0" d="M213.5 2L213.5 3L213.5 2Z" stroke="#7578f0" stroke-width="1"/><path fill="#7578f0" d="M8.5 3L8.5 4L8.5 3Z" stroke="#7578f0" stroke-width="1"/><path fill="#7578f0" d="M208.5 4L208.5 5L208.5 4Z" stroke="#7578f0" stroke-width="1"/><path fill="#7578f0" d="M13.5 5L13.5 6L13.5 5Z" stroke="#7578f0" stroke-width="1"/><path fill="#7578f0" d="M203.5 6L203.5 7L203.5 6Z" stroke="#7578f0" stroke-width="1"/><path fill="#7578f0" d="M18.5 7L18.5 8L18.5 7Z" stroke="#7578f0" stroke-width="1"/><path fill="#7578f0" d="M196.5 9L196.5 10L196.5 9Z" stroke="#7578f0" stroke-width="1"/><path fill="#7578f0" d="M25.5 10L25.5 11L25.5 10Z" stroke="#7578f0" stroke-width="1"/><path fill="#7578f0" d="M191.5 11L191.5 12L191.5 11Z" stroke="#7578f0" stroke-width="1"/><path fill="#7578f0" d="M30.5 12L30.5 13L30.5 12Z" stroke="#7578f0" stroke-width="1"/><path fill="#7578f0" d="M186.5 13L186.5 14L186.5 13Z" stroke="#7578f0" stroke-width="1"/><path fill="#7578f0" d="M35.5 14L35.5 15L35.5 14Z" stroke="#7578f0" stroke-width="1"/><path fill="#7578f0" d="M40.5 16L40.5 17L40.5 16Z" stroke="#7578f0" stroke-width="1"/><path fill="#7578f0" d="M179.5 16L179.5 17L179.5 16Z" stroke="#7578f0" stroke-width="1"/><path fill="#7578f0" d="M174.5 18L174.5 19L174.5 18Z" stroke="#7578f0" stroke-width="1"/><path fill="#7578f0" d="M47.5 19L47.5 20L47.5 19Z" stroke="#7578f0" stroke-width="1"/><path fill="#7578f0" d="M169.5 20L169.5 21L169.5 20Z" stroke="#7578f0" stroke-width="1"/><path fill="#7578f0" d="M1.5 21L2 22.5L1 22.5L1.5 21Z" stroke="#7578f0" stroke-width="1"/><path fill="#7578f0" d="M52.5 21L52.5 22L52.5 21Z" stroke="#7578f0" stroke-width="1"/><path fill="#7578f0" d="M218.5 22L219 23.5L218 23.5L218.5 22Z" stroke="#7578f0" stroke-width="1"/><path fill="#7578f0" d="M57.5 23L57.5 24L57.5 23Z" stroke="#7578f0" stroke-width="1"/><path fill="#7578f0" d="M62.5 25L62.5 26L62.5 25Z" stroke="#7578f0" stroke-width="1"/><path fill="#7578f0" d="M157.5 25L157.5 26L157.5 25Z" stroke="#7578f0" stroke-width="1"/><path fill="#7578f0" d="M64.5 26L64.5 27L64.5 26Z" stroke="#7578f0" stroke-width="1"/><path fill="#7578f0" d="M152.5 27L152.5 28L152.5 27Z" stroke="#7578f0" stroke-width="1"/><path fill="#7578f0" d="M69.5 28L69.5 29L69.5 28Z" stroke="#7578f0" stroke-width="1"/><path fill="#7578f0" d="M74.5 30L74.5 31L74.5 30Z" stroke="#7578f0" stroke-width="1"/><path fill="#7578f0" d="M2.5 32L2.5 33L2.5 32Z" stroke="#7578f0" stroke-width="1"/><path fill="#7578f0" d="M79.5 32L79.5 33L79.5 32Z" stroke="#7578f0" stroke-width="1"/><path fill="#7578f0" d="M140.5 32L140.5 33L140.5 32Z" stroke="#7578f0" stroke-width="1"/><path fill="#7578f0" d="M217.5 32L217.5 33L217.5 32Z" stroke="#7578f0" stroke-width="1"/><path fill="#7578f0" d="M84.5 34L84.5 35L84.5 34Z" stroke="#7578f0" stroke-width="1"/><path fill="#7578f0" d="M135.5 34L135.5 35L135.5 34Z" stroke="#7578f0" stroke-width="1"/><path fill="#7578f0" d="M86.5 35L86.5 36L86.5 35Z" stroke="#7578f0" stroke-width="1"/><path fill="#7578f0" d="M130.5 36L130.5 37L130.5 36Z" stroke="#7578f0" stroke-width="1"/><path fill="#7578f0" d="M91.5 37L91.5 38L91.5 37Z" stroke="#7578f0" stroke-width="1"/><path fill="#7578f0" d="M3.5 38L3.5 39L3.5 38Z" stroke="#7578f0" stroke-width="1"/><path fill="#7578f0" d="M96.5 39L96.5 40L96.5 39Z" stroke="#7578f0" stroke-width="1"/><path fill="#7578f0" d="M123.5 39L123.5 40L123.5 39Z" stroke="#7578f0" stroke-width="1"/><path fill="#7578f0" d="M101.5 41L101.5 42L101.5 41Z" stroke="#7578f0" stroke-width="1"/><path fill="#7578f0" d="M118.5 41L118.5 42L118.5 41Z" stroke="#7578f0" stroke-width="1"/><path fill="#7578f0" d="M215.5 43L215.5 44L215.5 43Z" stroke="#7578f0" stroke-width="1"/><path fill="#7578f0" d="M105.5 44L105.5 45L105.5 44Z" stroke="#7578f0" stroke-width="1"/><path fill="#7578f0" d="M114.5 44L114.5 45L114.5 44Z" stroke="#7578f0" stroke-width="1"/><path fill="#7578f0" d="M214.5 47L214.5 48L214.5 47Z" stroke="#7578f0" stroke-width="1"/><path fill="#7578f0" d="M213.5 50L213.5 51L213.5 50Z" stroke="#7578f0" stroke-width="1"/><path fill="#7578f0" d="M103.5 51L103.5 52L103.5 51Z" stroke="#7578f0" stroke-width="1"/><path fill="#7578f0" d="M116.5 51L116.5 52L116.5 51Z" stroke="#7578f0" stroke-width="1"/><path fill="#7578f0" d="M102.5 53L102.5 54L102.5 53Z" stroke="#7578f0" stroke-width="1"/><path fill="#7578f0" d="M117.5 53L117.5 54L117.5 53Z" stroke="#7578f0" stroke-width="1"/><path fill="#7578f0" d="M212.5 53L212.5 54L212.5 53Z" stroke="#7578f0" stroke-width="1"/><path fill="#7578f0" d="M8.5 55L8.5 56L8.5 55Z" stroke="#7578f0" stroke-width="1"/><path fill="#7578f0" d="M101.5 55L101.5 56L101.5 55Z" stroke="#7578f0" stroke-width="1"/><path fill="#7578f0" d="M210.5 58L210.5 59L210.5 58Z" stroke="#7578f0" stroke-width="1"/><path fill="#7578f0" d="M98.5 59L98.5 60L98.5 59Z" stroke="#7578f0" stroke-width="1"/><path fill="#7578f0" d="M121.5 59L121.5 60L121.5 59Z" stroke="#7578f0" stroke-width="1"/><path fill="#7578f0" d="M209.5 60L209.5 61L209.5 60Z" stroke="#7578f0" stroke-width="1"/><path fill="#7578f0" d="M12.5 63L12.5 64L12.5 63Z" stroke="#7578f0" stroke-width="1"/><path fill="#7578f0" d="M206.5 65L206.5 66L206.5 65Z" stroke="#7578f0" stroke-width="1"/><path fill="#7578f0" d="M14.5 66L14.5 67L14.5 66Z" stroke="#7578f0" stroke-width="1"/><path fill="#7578f0" d="M88.5 69L88.5 70L88.5 69Z" stroke="#7578f0" stroke-width="1"/><path fill="#7578f0" d="M131.5 69L131.5 70L131.5 69Z" stroke="#7578f0" stroke-width="1"/><path fill="#7578f0" d="M203.5 69L203.5 70L203.5 69Z" stroke="#7578f0" stroke-width="1"/><path fill="#7578f0" d="M17.5 70L22 74.5L21.5 75L17 70.5L17.5 70Z" stroke="#7578f0" stroke-width="1"/><path fill="#7578f0" d="M84.5 72L84.5 73L84.5 72Z" stroke="#7578f0" stroke-width="1"/><path fill="#7578f0" d="M135.5 72L135.5 73L135.5 72Z" stroke="#7578f0" stroke-width="1"/><path fill="#7578f0" d="M79.5 75L79.5 76L79.5 75Z" stroke="#7578f0" stroke-width="1"/><path fill="#7578f0" d="M140.5 75L140.5 76L140.5 75Z" stroke="#7578f0" stroke-width="1"/><path fill="#7578f0" d="M197.5 75L197.5 76L197.5 75Z" stroke="#7578f0" stroke-width="1"/><path fill="#7578f0" d="M25.5 77L25.5 78L25.5 77Z" stroke="#7578f0" stroke-width="1"/><path fill="#7578f0" d="M73.5 78L73.5 79L73.5 78Z" stroke="#7578f0" stroke-width="1"/><path fill="#7578f0" d="M146.5 78L146.5 79L146.5 78Z" stroke="#7578f0" stroke-width="1"/><path fill="#7578f0" d="M193.5 78L193.5 79L193.5 78Z" stroke="#7578f0" stroke-width="1"/><path fill="#7578f0" d="M71.5 79L71.5 80L71.5 79Z" stroke="#7578f0" stroke-width="1"/><path fill="#7578f0" d="M148.5 79L148.5 80L148.5 79Z" stroke="#7578f0" stroke-width="1"/><path fill="#7578f0" d="M68.5 80L68.5 81L68.5 80Z" stroke="#7578f0" stroke-width="1"/><path fill="#7578f0" d="M151.5 80L151.5 81L151.5 80Z" stroke="#7578f0" stroke-width="1"/><path fill="#7578f0" d="M65.5 81L65.5 82L65.5 81Z" stroke="#7578f0" stroke-width="1"/><path fill="#7578f0" d="M187.5 81L187.5 82L187.5 81Z" stroke="#7578f0" stroke-width="1"/><path fill="#7578f0" d="M157.5 82L157.5 83L157.5 82Z" stroke="#7578f0" stroke-width="1"/><path fill="#7578f0" d="M184.5 82L184.5 83L184.5 82Z" stroke="#7578f0" stroke-width="1"/><path fill="#7578f0" d="M40.5 83L40.5 84L40.5 83Z" stroke="#7578f0" stroke-width="1"/><path fill="#7578f0" d="M57.5 83L57.5 84L57.5 83Z" stroke="#7578f0" stroke-width="1"/><path fill="#7578f0" d="M161.5 83L161.5 84L161.5 83Z" stroke="#7578f0" stroke-width="1"/><path fill="#7578f0" d="M180.5 83L180.5 84L180.5 83Z" stroke="#7578f0" stroke-width="1"/><path fill="#7578f0" d="M169.5 84L173 84.5L169.5 85L169.5 84Z" stroke="#7578f0" stroke-width="1"/></g></svg>